<svg width="149" height="41" viewBox="0 0 149 41" fill="none" xmlns="http://www.w3.org/2000/svg">
<path d="M0 40.4233L1.43992 33.214H2.05703L4.24778 38.8475L3.92894 38.8372L8.24871 33.214H8.91724L7.47732 40.4233H6.74707L7.96072 34.3366L8.15614 34.3572L4.16549 39.5067H3.80551L1.76905 34.3263L1.93361 34.3572L0.730247 40.4233H0Z" fill="#FEFEFE"/>
<path d="M14.3178 40.4851C13.6595 40.4851 13.1213 40.3512 12.703 40.0834C12.2916 39.8156 12.0105 39.4449 11.8596 38.9711C11.7088 38.4974 11.695 37.9584 11.8185 37.3542L12.6413 33.214H13.3921L12.5693 37.3542C12.4939 37.7112 12.4733 38.0408 12.5076 38.3429C12.5419 38.645 12.631 38.9059 12.775 39.1256C12.9258 39.3453 13.135 39.5135 13.4024 39.6302C13.6698 39.747 13.9989 39.8053 14.3898 39.8053C14.8834 39.8053 15.3017 39.7161 15.6446 39.5376C15.9874 39.3522 16.2651 39.081 16.4776 38.7239C16.6971 38.3669 16.8616 37.9275 16.9713 37.4057L17.8044 33.214H18.545L17.7016 37.4572C17.5096 38.4459 17.129 39.1977 16.5599 39.7126C15.9977 40.2276 15.2503 40.4851 14.3178 40.4851Z" fill="#FEFEFE"/>
<path d="M22.9469 40.4851C22.5972 40.4851 22.251 40.4473 21.9081 40.3718C21.5722 40.2894 21.267 40.1795 20.9928 40.0422C20.7185 39.898 20.4991 39.7401 20.3345 39.5685L20.7048 38.9711C20.8693 39.1428 21.0716 39.2938 21.3116 39.4243C21.5584 39.5547 21.8293 39.6577 22.1241 39.7332C22.419 39.8019 22.7138 39.8362 23.0087 39.8362C23.4338 39.8362 23.804 39.7813 24.1195 39.6714C24.4417 39.5616 24.692 39.4002 24.8703 39.1874C25.0485 38.9745 25.1377 38.7171 25.1377 38.415C25.1377 38.1747 25.0691 37.9824 24.932 37.8382C24.7948 37.6872 24.6166 37.567 24.3972 37.4778C24.1777 37.3816 23.9343 37.2958 23.6669 37.2203C23.3995 37.1448 23.1321 37.0624 22.8647 36.9731C22.5972 36.8839 22.3504 36.774 22.1241 36.6436C21.9047 36.5131 21.7264 36.3415 21.5893 36.1286C21.459 35.9158 21.3939 35.648 21.3939 35.3253C21.3939 34.8721 21.5173 34.4842 21.7641 34.1615C22.011 33.832 22.3504 33.5813 22.7824 33.4097C23.2144 33.238 23.7115 33.1522 24.2737 33.1522C24.6989 33.1522 25.1068 33.2037 25.4977 33.3067C25.8954 33.4097 26.2313 33.5642 26.5056 33.7702L26.1868 34.3881C25.9262 34.1958 25.6279 34.0517 25.292 33.9555C24.956 33.8526 24.6029 33.8011 24.2326 33.8011C23.8143 33.8011 23.4475 33.8594 23.1321 33.9761C22.8167 34.0929 22.5698 34.2611 22.3915 34.4808C22.2201 34.6936 22.1344 34.9511 22.1344 35.2532C22.1344 35.4935 22.1996 35.6892 22.3298 35.8402C22.467 35.9913 22.6452 36.1149 22.8647 36.211C23.0909 36.3071 23.3378 36.3964 23.6052 36.4788C23.8726 36.5543 24.14 36.6367 24.4074 36.7259C24.6749 36.8083 24.9183 36.9148 25.1377 37.0452C25.364 37.1688 25.5457 37.3336 25.6828 37.5396C25.8199 37.7387 25.8885 37.9962 25.8885 38.312C25.8885 38.772 25.7617 39.1668 25.508 39.4964C25.2542 39.8191 24.9046 40.0662 24.4589 40.2379C24.02 40.4027 23.5161 40.4851 22.9469 40.4851Z" fill="#FEFEFE"/>
<path d="M30.0873 36.4376H33.8928L33.7694 37.0864H29.9638L30.0873 36.4376ZM29.501 39.7641H33.8311L33.6974 40.4233H28.6165L30.0564 33.214H34.9933L34.8596 33.8731H30.6735L29.501 39.7641Z" fill="#FEFEFE"/>
<path d="M39.9913 40.4851C39.3331 40.4851 38.7948 40.3512 38.3765 40.0834C37.9651 39.8156 37.684 39.4449 37.5332 38.9711C37.3823 38.4974 37.3686 37.9584 37.492 37.3542L38.3148 33.214H39.0657L38.2428 37.3542C38.1674 37.7112 38.1468 38.0408 38.1811 38.3429C38.2154 38.645 38.3046 38.9059 38.4485 39.1256C38.5994 39.3453 38.8085 39.5135 39.0759 39.6302C39.3434 39.747 39.6725 39.8053 40.0633 39.8053C40.557 39.8053 40.9753 39.7161 41.3181 39.5376C41.6609 39.3522 41.9386 39.081 42.1512 38.7239C42.3706 38.3669 42.5352 37.9275 42.6449 37.4057L43.478 33.214H44.2185L43.3751 37.4572C43.1832 38.4459 42.8026 39.1977 42.2335 39.7126C41.6712 40.2276 40.9238 40.4851 39.9913 40.4851Z" fill="#FEFEFE"/>
<path d="M46.5223 40.4233L47.9622 33.214H48.5794L50.7701 38.8475L50.4513 38.8372L54.771 33.214H55.4396L53.9996 40.4233H53.2694L54.4831 34.3366L54.6785 34.3572L50.6878 39.5067H50.3278L48.2914 34.3263L48.4559 34.3572L47.2526 40.4233H46.5223Z" fill="#FEFEFE"/>
<path d="M1.81362 28.837L7.57332 0H18.2699C21.1497 0 23.5908 0.480617 25.5929 1.44185C27.5951 2.40308 29.1036 3.76254 30.1184 5.52022C31.1606 7.25044 31.6818 9.29649 31.6818 11.6584C31.6818 14.1576 31.2566 16.4645 30.4064 18.5793C29.5836 20.694 28.3768 22.5203 26.786 24.0583C25.2227 25.5688 23.3439 26.7497 21.1497 27.6011C18.9556 28.425 16.4871 28.837 13.7444 28.837H1.81362ZM4.28206 26.942H13.8678C17.0768 26.942 19.847 26.2966 22.1783 25.0058C24.537 23.6875 26.3472 21.8886 27.6088 19.6091C28.8979 17.3022 29.5424 14.6794 29.5424 11.7408C29.5424 9.76338 29.1173 8.03316 28.2671 6.55011C27.4168 5.06707 26.1415 3.92732 24.441 3.13087C22.7405 2.30696 20.6012 1.895 18.0231 1.895H9.30122L4.28206 26.942Z" fill="#FEFEFE"/>
<path d="M35.8029 28.837L41.5626 0H43.6608L37.9011 28.837H35.8029Z" fill="#FEFEFE"/>
<path d="M55.6382 28.837L48.5208 0H50.7424L57.4484 27.5187H56.2141L74.0281 0H76.3319L57.6952 28.837H55.6382Z" fill="#FEFEFE"/>
<path d="M65.6503 33.7496C64.6355 35.1777 64.0183 36.3174 63.7989 37.1688C63.6069 38.0202 63.7715 38.6381 64.2926 39.0226C64.8137 39.3796 65.6365 39.5719 66.7611 39.5993L66.5554 40.4233C65.7874 40.3683 64.992 40.3409 64.1692 40.3409C63.3464 40.3134 62.5784 40.2997 61.8653 40.2997C61.1796 40.2997 60.6037 40.3134 60.1374 40.3409C59.6711 40.3409 59.2186 40.3683 58.7798 40.4233L58.9855 39.5993C59.3694 39.517 59.7671 39.3522 60.1785 39.105C60.5899 38.8304 61.0425 38.4459 61.5362 37.9515C62.0299 37.4572 62.551 36.8118 63.0995 36.0153L80.8312 11.0507C80.9409 11.0507 81.0369 11.0507 81.1192 11.0507C81.2289 11.0507 81.3386 11.0507 81.4483 11.0507L83.0939 36.9628C83.1762 37.9515 83.423 38.6381 83.8344 39.0226C84.2733 39.3796 84.6984 39.5719 85.1098 39.5993L84.9452 40.4233C84.3967 40.3683 83.711 40.3409 82.8882 40.3409C82.0654 40.3134 81.2563 40.2997 80.4609 40.2997C79.4735 40.2997 78.541 40.3134 77.6633 40.3409C76.7857 40.3409 76.0726 40.3683 75.524 40.4233L75.6886 39.5993C77.0051 39.5444 77.9376 39.311 78.4861 38.899C79.0347 38.4596 79.2815 37.5396 79.2267 36.1389L78.1159 15.7882L78.4039 15.7059L65.6503 33.7496ZM68.9415 28.5589H80.9546L80.6255 29.3828H68.201L68.9415 28.5589Z" fill="#FEFEFE"/>
<path d="M97.407 25.8812C98.9155 25.9361 100.095 26.0048 100.945 26.0872C101.795 26.1421 102.467 26.197 102.961 26.2519C103.482 26.3069 103.976 26.3755 104.442 26.4579C105.265 26.6227 105.978 26.8287 106.581 27.0759C107.185 27.2956 107.665 27.6114 108.021 28.0234C108.405 28.4353 108.68 28.9571 108.844 29.5888C109.009 30.193 109.05 30.962 108.968 31.8958L108.638 36.0977C108.584 36.9216 108.625 37.7043 108.762 38.4459C108.926 39.1599 109.324 39.5032 109.955 39.4758C110.449 39.4483 110.874 39.1462 111.23 38.5695C111.614 37.9653 111.998 37.1139 112.382 36.0153L112.588 35.4386H113.534L113.37 35.9741C112.903 37.6494 112.286 38.9128 111.518 39.7641C110.778 40.588 109.763 41 108.474 41C107.13 41 106.156 40.6018 105.553 39.8053C104.949 38.9814 104.689 38.0614 104.771 37.0452L105.1 32.4313C105.21 30.9757 105.1 29.8222 104.771 28.9709C104.469 28.1195 103.743 27.5153 102.591 27.1583C101.466 26.7738 99.7109 26.5815 97.3247 26.5815L97.407 25.8812ZM96.9956 26.5815L97.2013 25.7576H99.0526C101.027 25.7576 102.687 25.5379 104.031 25.0985C105.375 24.6316 106.444 23.9862 107.24 23.1623C108.062 22.3384 108.652 21.3909 109.009 20.3198C109.393 19.2487 109.585 18.0952 109.585 16.8593C109.585 15.239 109.173 14.0443 108.35 13.2753C107.555 12.4789 106.225 12.0806 104.36 12.0806C103.153 12.0806 102.303 12.3278 101.809 12.8222C101.315 13.289 100.877 14.2228 100.493 15.6235L95.062 36.0565C94.8426 36.9079 94.7192 37.5945 94.6917 38.1163C94.6643 38.6107 94.8563 38.9814 95.2677 39.2286C95.7065 39.4483 96.4471 39.5719 97.4893 39.5993L97.3247 40.4233C96.6939 40.3683 95.9259 40.3409 95.0209 40.3409C94.1158 40.3134 93.1832 40.2997 92.2233 40.2997C91.1536 40.2997 90.1388 40.3134 89.1789 40.3409C88.2189 40.3409 87.451 40.3683 86.875 40.4233L87.0396 39.5993C87.9721 39.5444 88.6989 39.4346 89.22 39.2698C89.7411 39.105 90.1525 38.7754 90.4542 38.2811C90.7559 37.7867 91.0302 37.0452 91.277 36.0565L96.7076 15.6235C96.9545 14.7446 97.0642 14.058 97.0367 13.5637C97.0367 13.0419 96.831 12.6711 96.4196 12.4514C96.0082 12.2042 95.2951 12.0806 94.2803 12.0806L94.486 11.2567C94.87 11.2842 95.3363 11.3116 95.8848 11.3391C96.4333 11.3391 97.023 11.3528 97.6539 11.3803C98.3121 11.3803 98.9429 11.3803 99.5463 11.3803C100.534 11.3803 101.521 11.3666 102.508 11.3391C103.523 11.3116 104.538 11.2979 105.553 11.2979C108.323 11.2979 110.38 11.8335 111.724 12.9045C113.068 13.9482 113.74 15.3488 113.74 17.1065C113.74 18.9466 113.095 20.5807 111.806 22.0088C110.545 23.4094 108.776 24.5217 106.499 25.3456C104.25 26.1696 101.631 26.5815 98.6412 26.5815H96.9956Z" fill="#FEFEFE"/>
<path d="M147.149 6.76639C147.779 6.76639 148.246 6.95864 148.547 7.34313C148.849 7.72762 149 8.19451 149 8.74378C149 9.37545 148.808 9.95219 148.424 10.474C148.067 10.9683 147.615 11.3803 147.066 11.7099C146.381 12.1493 145.489 12.4926 144.392 12.7398C143.323 12.9595 142.047 13.0693 140.566 13.0693C139.414 13.0693 138.262 13.0144 137.11 12.9045C135.986 12.7672 134.875 12.6162 133.778 12.4514C132.681 12.2866 131.597 12.1493 130.528 12.0394C129.458 11.9021 128.402 11.8335 127.36 11.8335C126.51 11.8335 125.632 11.8747 124.727 11.957C123.849 12.0394 123.191 12.2317 122.752 12.5338C122.972 12.8084 123.15 13.1792 123.287 13.6461C123.424 14.0855 123.493 14.5112 123.493 14.9231C123.493 15.4724 123.328 16.008 122.999 16.5298C122.67 17.0516 122.149 17.3125 121.436 17.3125C120.832 17.3125 120.38 17.1202 120.078 16.7357C119.776 16.3513 119.626 15.8569 119.626 15.2527C119.626 14.7034 119.776 14.1404 120.078 13.5637C120.38 12.9595 120.956 12.4514 121.806 12.0394C122.437 11.7373 123.109 11.5176 123.822 11.3803C124.562 11.243 125.248 11.1606 125.879 11.1331C126.537 11.1057 127.017 11.0919 127.319 11.0919C128.964 11.0919 130.514 11.1881 131.968 11.3803C133.421 11.5726 134.861 11.7648 136.288 11.957C137.741 12.1493 139.263 12.2454 140.854 12.2454C142.116 12.2454 143.172 12.1768 144.022 12.0394C144.9 11.8747 145.681 11.6 146.367 11.2155L146.326 11.5039C146.052 11.2293 145.777 10.886 145.503 10.474C145.256 10.0346 145.133 9.55396 145.133 9.03215C145.133 8.48288 145.297 7.9748 145.626 7.50791C145.956 7.01357 146.463 6.76639 147.149 6.76639ZM132.749 11.957C132.749 11.957 132.873 11.9708 133.12 11.9982C133.367 12.0257 133.668 12.0669 134.025 12.1218C134.409 12.1768 134.779 12.2317 135.136 12.2866C135.52 12.3415 135.835 12.3827 136.082 12.4102C136.329 12.4377 136.452 12.4514 136.452 12.4514L130.281 35.6446C130.007 36.6882 129.897 37.4984 129.952 38.0751C130.007 38.6244 130.295 39.0089 130.816 39.2286C131.364 39.4483 132.215 39.5719 133.367 39.5993L133.202 40.4233C132.489 40.3683 131.584 40.3409 130.487 40.3409C129.39 40.3134 128.251 40.2997 127.072 40.2997C125.893 40.2997 124.754 40.3134 123.657 40.3409C122.588 40.3409 121.724 40.3683 121.065 40.4233L121.23 39.5993C122.382 39.5444 123.273 39.4071 123.904 39.1874C124.562 38.9402 125.07 38.542 125.426 37.9927C125.81 37.416 126.153 36.6333 126.455 35.6446L132.749 11.957Z" fill="#FEFEFE"/>
</svg>
