<svg width="225" height="62" viewBox="0 0 225 62" fill="none" xmlns="http://www.w3.org/2000/svg">
<path d="M0 61.1279L2.17438 50.2261H3.10626L6.41443 58.745L5.93296 58.7295L12.4561 50.2261H13.4656L11.2913 61.1279H10.1885L12.0212 51.9236L12.3163 51.9548L6.29018 59.7418H5.74658L2.67138 51.9081L2.91988 51.9548L1.10272 61.1279H0Z" fill="#1a1a1a"/>
<path d="M21.6208 61.2213C20.6268 61.2213 19.814 61.0188 19.1824 60.6139C18.5611 60.209 18.1366 59.6483 17.9088 58.9319C17.681 58.2155 17.6603 57.4005 17.8467 56.4868L19.0892 50.2261H20.223L18.9805 56.4868C18.8666 57.0267 18.8355 57.5251 18.8873 57.9819C18.939 58.4388 19.0737 58.8333 19.2911 59.1655C19.5189 59.4978 19.8347 59.7522 20.2385 59.9287C20.6423 60.1052 21.1393 60.1934 21.7295 60.1934C22.475 60.1934 23.1066 60.0584 23.6243 59.7885C24.142 59.5082 24.5614 59.098 24.8824 58.5582C25.2137 58.0183 25.4622 57.3538 25.6279 56.5647L26.8859 50.2261H28.0041L26.7306 56.6426C26.4407 58.1377 25.866 59.2746 25.0066 60.0533C24.1576 60.832 23.029 61.2213 21.6208 61.2213Z" fill="#1a1a1a"/>
<path d="M34.6514 61.2213C34.1234 61.2213 33.6005 61.1642 33.0828 61.05C32.5754 60.9254 32.1146 60.7593 31.7005 60.5516C31.2863 60.3336 30.955 60.0948 30.7065 59.8352L31.2656 58.9319C31.5141 59.1915 31.8196 59.4199 32.1819 59.6172C32.5547 59.8144 32.9637 59.9702 33.4089 60.0844C33.8542 60.1882 34.2994 60.2401 34.7446 60.2401C35.3866 60.2401 35.9457 60.1571 36.422 59.991C36.9086 59.8248 37.2866 59.5808 37.5558 59.259C37.825 58.9371 37.9596 58.5478 37.9596 58.0909C37.9596 57.7275 37.856 57.4368 37.649 57.2188C37.4419 56.9904 37.1727 56.8087 36.8413 56.6737C36.51 56.5283 36.1424 56.3986 35.7386 56.2844C35.3348 56.1701 34.931 56.0455 34.5272 55.9106C34.1234 55.7756 33.7506 55.6095 33.4089 55.4122C33.0776 55.2149 32.8084 54.9554 32.6013 54.6335C32.4046 54.3116 32.3062 53.9067 32.3062 53.4187C32.3062 52.7335 32.4926 52.1469 32.8653 51.6589C33.2381 51.1605 33.7506 50.7815 34.4029 50.522C35.0552 50.2624 35.8059 50.1326 36.655 50.1326C37.2969 50.1326 37.913 50.2105 38.5032 50.3662C39.1037 50.522 39.6111 50.7556 40.0253 51.0671L39.5438 52.0015C39.1503 51.7108 38.6999 51.4928 38.1926 51.3474C37.6852 51.1917 37.152 51.1138 36.5928 51.1138C35.9612 51.1138 35.4073 51.202 34.931 51.3785C34.4547 51.5551 34.0819 51.8094 33.8127 52.1417C33.5539 52.4635 33.4244 52.8529 33.4244 53.3097C33.4244 53.6731 33.5228 53.969 33.7195 54.1974C33.9266 54.4259 34.1958 54.6127 34.5272 54.7581C34.8689 54.9035 35.2416 55.0384 35.6454 55.163C36.0492 55.2772 36.4531 55.4018 36.8569 55.5368C37.2607 55.6614 37.6283 55.8223 37.9596 56.0196C38.3013 56.2065 38.5757 56.4557 38.7827 56.7671C38.9898 57.0682 39.0934 57.4576 39.0934 57.9352C39.0934 58.6308 38.9018 59.2278 38.5187 59.7262C38.1356 60.2142 37.6075 60.588 36.9345 60.8475C36.2719 61.0967 35.5108 61.2213 34.6514 61.2213Z" fill="#1a1a1a"/>
<path d="M45.4338 55.1007H51.1804L50.994 56.0819H45.2474L45.4338 55.1007ZM44.5485 60.1311H51.0872L50.8853 61.1279H43.2128L45.3872 50.2261H52.8422L52.6403 51.2228H46.3191L44.5485 60.1311Z" fill="#1a1a1a"/>
<path d="M60.3896 61.2213C59.3956 61.2213 58.5828 61.0188 57.9512 60.6139C57.3299 60.209 56.9054 59.6483 56.6776 58.9319C56.4498 58.2155 56.4291 57.4005 56.6155 56.4868L57.858 50.2261H58.9918L57.7493 56.4868C57.6354 57.0267 57.6043 57.5251 57.6561 57.9819C57.7078 58.4388 57.8424 58.8333 58.0599 59.1655C58.2877 59.4978 58.6035 59.7522 59.0073 59.9287C59.4111 60.1052 59.9081 60.1934 60.4983 60.1934C61.2438 60.1934 61.8754 60.0584 62.3931 59.7885C62.9108 59.5082 63.3302 59.098 63.6512 58.5582C63.9825 58.0183 64.231 57.3538 64.3967 56.5647L65.6547 50.2261H66.7729L65.4994 56.6426C65.2095 58.1377 64.6348 59.2746 63.7754 60.0533C62.9264 60.832 61.7978 61.2213 60.3896 61.2213Z" fill="#1a1a1a"/>
<path d="M70.2518 61.1279L72.4262 50.2261H73.3581L76.6663 58.745L76.1848 58.7295L82.7079 50.2261H83.7175L81.5431 61.1279H80.4404L82.2731 51.9236L82.5682 51.9548L76.542 59.7418H75.9984L72.9232 51.9081L73.1717 51.9548L71.3546 61.1279H70.2518Z" fill="#1a1a1a"/>
<path d="M2.73869 43.6071L11.4362 0H27.5888C31.9375 0 35.6236 0.726786 38.6471 2.18036C41.6705 3.63393 43.9484 5.68969 45.4808 8.34765C47.0547 10.9641 47.8416 14.0581 47.8416 17.6297C47.8416 21.409 47.1996 24.8976 45.9157 28.0955C44.6732 31.2933 42.8509 34.0551 40.4487 36.3808C38.0879 38.665 35.2509 40.4508 31.9375 41.7383C28.6242 42.9842 24.8967 43.6071 20.755 43.6071H2.73869ZM6.4662 40.7415H20.9414C25.7871 40.7415 29.9702 39.7656 33.4907 37.8136C37.0525 35.8201 39.786 33.0999 41.6912 29.6529C43.6378 26.1643 44.6111 22.1981 44.6111 17.7543C44.6111 14.7641 43.9691 12.1477 42.6852 9.90505C41.4013 7.6624 39.4754 5.93888 36.9075 4.73449C34.3397 3.48857 31.1092 2.86561 27.216 2.86561H14.0455L6.4662 40.7415Z" fill="#1a1a1a"/>
<path d="M54.0648 43.6071L62.7623 0H65.9307L57.2332 43.6071H54.0648Z" fill="#1a1a1a"/>
<path d="M84.0174 43.6071L73.2697 0H76.6245L86.7509 41.6137H84.8871L111.787 0H115.266L87.1236 43.6071H84.0174Z" fill="#1a1a1a"/>
<path d="M99.1363 51.0359C97.6039 53.1955 96.672 54.919 96.3407 56.2065C96.0507 57.4939 96.2992 58.4284 97.0862 59.0098C97.8731 59.5497 99.1156 59.8404 100.814 59.8819L100.503 61.1279C99.3434 61.0448 98.1423 61.0033 96.8998 61.0033C95.6573 60.9617 94.4976 60.941 93.4208 60.941C92.3854 60.941 91.5156 60.9617 90.8115 61.0033C90.1074 61.0033 89.4241 61.0448 88.7614 61.1279L89.072 59.8819C89.6518 59.7573 90.2524 59.5082 90.8736 59.1344C91.4949 58.7191 92.1783 58.1377 92.9238 57.3901C93.6693 56.6426 94.4562 55.6666 95.2845 54.4622L122.06 16.7109C122.226 16.7109 122.371 16.7109 122.495 16.7109C122.661 16.7109 122.827 16.7109 122.992 16.7109L125.477 55.895C125.602 57.3901 125.974 58.4284 126.596 59.0098C127.258 59.5497 127.9 59.8404 128.522 59.8819L128.273 61.1279C127.445 61.0448 126.409 61.0033 125.167 61.0033C123.924 60.9617 122.702 60.941 121.501 60.941C120.01 60.941 118.602 60.9617 117.277 61.0033C115.952 61.0033 114.875 61.0448 114.046 61.1279L114.295 59.8819C116.283 59.7989 117.691 59.4459 118.519 58.8229C119.348 58.1584 119.72 56.7671 119.638 54.6491L117.96 23.8749L118.395 23.7503L99.1363 51.0359ZM104.106 43.1866H122.247L121.75 44.4326H102.988L104.106 43.1866Z" fill="#1a1a1a"/>
<path d="M147.091 39.1374C149.369 39.2205 151.15 39.3243 152.434 39.4489C153.718 39.5319 154.733 39.615 155.478 39.6981C156.265 39.7811 157.01 39.885 157.715 40.0095C158.957 40.2587 160.034 40.5702 160.945 40.944C161.856 41.2762 162.581 41.7538 163.119 42.3768C163.699 42.9997 164.113 43.7888 164.362 44.744C164.61 45.6577 164.673 46.8206 164.548 48.2326L164.051 54.5868C163.968 55.8327 164.031 57.0163 164.238 58.1377C164.486 59.2174 165.087 59.7366 166.039 59.695C166.785 59.6535 167.427 59.1967 167.965 58.3245C168.545 57.4109 169.125 56.1234 169.705 54.4622L170.015 53.5901H171.444L171.196 54.3999C170.492 56.9333 169.56 58.8437 168.4 60.1311C167.282 61.377 165.749 62 163.803 62C161.773 62 160.303 61.3978 159.392 60.1934C158.481 58.9475 158.087 57.5562 158.212 56.0196L158.709 49.0424C158.874 46.8413 158.709 45.097 158.212 43.8096C157.756 42.5221 156.658 41.6085 154.919 41.0686C153.221 40.4871 150.57 40.1964 146.967 40.1964L147.091 39.1374ZM146.47 40.1964L146.781 38.9505H149.576C152.558 38.9505 155.064 38.6183 157.093 37.9538C159.123 37.2478 160.738 36.2718 161.939 35.0259C163.182 33.78 164.072 32.3471 164.61 30.7275C165.19 29.1078 165.48 27.3635 165.48 25.4946C165.48 23.0443 164.859 21.2377 163.616 20.0749C162.415 18.8705 160.407 18.2683 157.59 18.2683C155.768 18.2683 154.484 18.642 153.739 19.3896C152.993 20.0956 152.33 21.5077 151.751 23.6257L143.55 54.5245C143.219 55.8119 143.032 56.8502 142.991 57.6393C142.949 58.3868 143.239 58.9475 143.861 59.3213C144.523 59.6535 145.642 59.8404 147.215 59.8819L146.967 61.1279C146.014 61.0448 144.855 61.0033 143.488 61.0033C142.121 60.9617 140.713 60.941 139.263 60.941C137.648 60.941 136.116 60.9617 134.666 61.0033C133.216 61.0033 132.057 61.0448 131.187 61.1279L131.436 59.8819C132.844 59.7989 133.941 59.6328 134.728 59.3836C135.515 59.1344 136.136 58.636 136.592 57.8885C137.048 57.1409 137.462 56.0196 137.834 54.5245L146.035 23.6257C146.408 22.2967 146.573 21.2585 146.532 20.5109C146.532 19.7218 146.221 19.1612 145.6 18.8289C144.979 18.4552 143.902 18.2683 142.37 18.2683L142.68 17.0224C143.26 17.0639 143.964 17.1054 144.792 17.1469C145.621 17.1469 146.511 17.1677 147.464 17.2092C148.458 17.2092 149.41 17.2092 150.322 17.2092C151.813 17.2092 153.304 17.1885 154.795 17.1469C156.327 17.1054 157.859 17.0847 159.392 17.0847C163.575 17.0847 166.681 17.8945 168.711 19.5142C170.74 21.0924 171.755 23.2104 171.755 25.8684C171.755 28.6509 170.782 31.122 168.835 33.2816C166.93 35.3996 164.258 37.0816 160.821 38.3276C157.425 39.5735 153.469 40.1964 148.955 40.1964H146.47Z" fill="#1a1a1a"/>
<path d="M222.204 10.2321C223.157 10.2321 223.861 10.5228 224.317 11.1042C224.772 11.6857 225 12.3917 225 13.2223C225 14.1775 224.71 15.0497 224.13 15.8387C223.592 16.5863 222.908 17.2092 222.08 17.7076C221.045 18.3721 219.699 18.8912 218.042 19.265C216.427 19.5973 214.501 19.7634 212.264 19.7634C210.525 19.7634 208.785 19.6803 207.046 19.5142C205.348 19.3065 203.67 19.0781 202.014 18.8289C200.357 18.5798 198.721 18.3721 197.106 18.206C195.491 17.9983 193.896 17.8945 192.322 17.8945C191.038 17.8945 189.713 17.9568 188.346 18.0814C187.021 18.206 186.027 18.4967 185.364 18.9535C185.695 19.3688 185.965 19.9295 186.172 20.6355C186.379 21.3 186.482 21.9437 186.482 22.5667C186.482 23.3973 186.234 24.2071 185.737 24.9962C185.24 25.7853 184.453 26.1799 183.376 26.1799C182.465 26.1799 181.782 25.8891 181.326 25.3077C180.87 24.7263 180.643 23.9787 180.643 23.0651C180.643 22.2344 180.87 21.3831 181.326 20.5109C181.782 19.5973 182.651 18.8289 183.935 18.206C184.888 17.7491 185.903 17.4169 186.979 17.2092C188.098 17.0016 189.133 16.877 190.086 16.8355C191.08 16.7939 191.804 16.7732 192.26 16.7732C194.745 16.7732 197.085 16.9185 199.28 17.2092C201.475 17.5 203.65 17.7907 205.803 18.0814C207.998 18.3721 210.297 18.5175 212.699 18.5175C214.604 18.5175 216.199 18.4136 217.483 18.206C218.808 17.9568 219.989 17.5415 221.024 16.9601L220.962 17.3961C220.548 16.9808 220.134 16.4617 219.719 15.8387C219.347 15.1742 219.16 14.4475 219.16 13.6584C219.16 12.8278 219.409 12.0594 219.906 11.3534C220.403 10.6059 221.169 10.2321 222.204 10.2321ZM200.461 18.0814C200.461 18.0814 200.647 18.1021 201.02 18.1437C201.392 18.1852 201.848 18.2475 202.386 18.3306C202.966 18.4136 203.525 18.4967 204.064 18.5798C204.644 18.6628 205.12 18.7251 205.493 18.7666C205.865 18.8082 206.052 18.8289 206.052 18.8289L196.733 53.9015C196.319 55.4797 196.153 56.7048 196.236 57.577C196.319 58.4076 196.754 58.989 197.541 59.3213C198.369 59.6535 199.653 59.8404 201.392 59.8819L201.144 61.1279C200.067 61.0448 198.7 61.0033 197.044 61.0033C195.387 60.9617 193.668 60.941 191.887 60.941C190.106 60.941 188.388 60.9617 186.731 61.0033C185.116 61.0033 183.811 61.0448 182.817 61.1279L183.066 59.8819C184.805 59.7989 186.151 59.5912 187.104 59.259C188.098 58.8852 188.864 58.283 189.402 57.4524C189.982 56.5803 190.5 55.3966 190.955 53.9015L200.461 18.0814Z" fill="#1a1a1a"/>
</svg>
 